<?xml version="1.0" encoding="UTF-8"?>
<!DOCTYPE svg PUBLIC "-//W3C//DTD SVG 1.1//EN" "http://www.w3.org/Graphics/SVG/1.1/DTD/svg11.dtd">
<!-- Creator: CorelDRAW 2021 (64-Bit) -->
<svg xmlns="http://www.w3.org/2000/svg" xml:space="preserve" width="8.4791mm" height="8.5092mm" version="1.1" style="shape-rendering:geometricPrecision; text-rendering:geometricPrecision; image-rendering:optimizeQuality; fill-rule:evenodd; clip-rule:evenodd"
viewBox="0 0 25.6 25.69"
 xmlns:xlink="http://www.w3.org/1999/xlink"
 xmlns:xodm="http://www.corel.com/coreldraw/odm/2003">
 <defs>
  <style type="text/css">
   <![CDATA[
    .fil0 {fill:#144B4B}
    .fil1 {fill:#215C5C}
   ]]>
  </style>
 </defs>
 <g id="Layer_x0020_1">
  <metadata id="CorelCorpID_0Corel-Layer"/>
  <g id="_1876362404016">
   <path class="fil0" d="M-0 4.94c0,2.81 0,4.05 0.43,6.65 0.09,0.58 0.21,0.77 0.3,1.24 0.21,1.11 0.77,2.21 1.11,3.25l0.52 1.02 1.45 -0.73c0.55,-0.31 0.79,-0.56 1.44,-0.83 0.74,-0.3 1.45,-0.79 2.15,-1.21 0.94,-0.56 2,-1.02 2.94,-1.6 0.15,-0.09 0.15,-0.12 0.33,-0.22l0.76 -0.42c0.14,-0.06 0.22,-0.09 0.37,-0.17l5.81 -3.27c0.89,-0.56 1.85,-0.96 2.74,-1.53 0.94,-0.6 2.18,-1.11 3.12,-1.69 0.46,-0.28 1.91,-1.04 2.14,-1.31 -0.14,-0.62 -0.85,-1.68 -1.18,-2.18 -0.21,0.1 -0.43,0.17 -0.64,0.27l-8.32 4.66c-0.24,0.14 -0.41,0.24 -0.66,0.34 -1.01,0.41 -2.76,1.65 -3.84,2.15 -0.35,0.16 -0.34,0.15 -0.65,0.35l-1.28 0.72c-0.26,0.15 -0.42,0.18 -0.66,0.34 -0.24,0.16 -0.36,0.22 -0.62,0.38 -0.29,0.17 -0.4,0.19 -0.67,0.33 -0.2,0.1 -0.41,0.24 -0.64,0.36l-1.26 0.73c-0.43,0.26 -0.91,0.4 -1.19,0.81 -0.87,-0.42 -0.36,0.18 -0.83,-1.35 -0.16,-0.54 -0.23,-1.19 -0.38,-1.8 -0.33,-1.3 -0.15,-2.64 -0.15,-4.02 0.82,-0.55 1.81,-0.78 2.72,-1.18l3.34 -1.29c0.64,-0.21 1.27,-0.57 1.94,-0.78 0.65,-0.2 0.86,-0.17 1.51,0.08l1.94 0.79c0.71,0.24 0.5,0.44 1.74,-0.3 0.3,-0.18 0.59,-0.35 0.87,-0.49 0.4,-0.21 0.62,-0.16 0.73,-0.63 -0.32,-0.21 -0.65,-0.33 -1.07,-0.47l-2.2 -0.89c-0.38,-0.15 -0.73,-0.25 -1.12,-0.42l-1.1 -0.45c-0.77,-0.4 -1.36,-0.01 -2.29,0.36l-1.7 0.66c-0.37,0.13 -0.21,0.14 -0.55,0.26 -0.21,0.08 -0.34,0.08 -0.56,0.17 -0.23,0.09 -0.33,0.16 -0.55,0.26 -0.45,0.2 -0.67,0.28 -1.14,0.41 -0.35,0.09 -0.25,0.08 -0.51,0.22 -0.26,0.13 -0.31,0.11 -0.61,0.21 -0.21,0.07 -0.33,0.15 -0.5,0.23 -0.2,0.09 -0.36,0.13 -0.59,0.23 -0.2,0.09 -0.3,0.15 -0.51,0.22l-1.74 0.61c-0.34,0.16 -0.7,0.48 -0.7,0.94z"/>
   <path class="fil1" d="M3.72 19.56c0,0.43 0.28,0.49 0.53,0.83l1.21 1.42 3.61 2.84c0.33,0.18 0.51,0.29 0.89,0.47 1.29,0.61 0.99,0.72 1.72,0.41l1.73 -0.9c0.65,-0.31 0.96,-0.62 1.51,-1.03l1.45 -1.18c0.22,-0.17 0.16,-0.12 0.34,-0.3 0.86,-0.87 1.97,-2.15 2.61,-3.2l0.25 -0.39c0.46,-0.72 0.8,-1.55 1.13,-2.14 0.13,-0.24 0.1,-0.19 0.18,-0.46 0.13,-0.46 -0.01,-0.07 0.2,-0.44l0.48 -1.43c0.19,-0.66 0.38,-1.11 0.42,-1.58 0.06,-0.62 0.51,-1.58 0.54,-3.27 -0.26,-0.06 -0.16,-0.09 -0.36,-0.09l-1.56 0.8c-0.22,0.15 -0.08,0.11 -0.39,0.25 -0.89,0.39 -0.82,0.8 -1.01,1.9l-1.65 4.16c-0.21,0.32 -0.2,0.47 -0.41,0.77 -0.62,0.88 -1.05,1.57 -1.82,2.35l-0.14 0.13c-1,1.04 -2.18,1.92 -3.41,2.68 -0.29,0.18 -0.57,0.24 -0.84,0.11l-1.46 -0.91c-0.26,-0.18 -0.37,-0.31 -0.6,-0.49 -0.18,-0.14 -0.21,-0.12 -0.38,-0.25 -0.16,-0.12 -0.06,-0.05 -0.15,-0.13 -0.01,-0.01 -0.03,-0.03 -0.05,-0.04l-0.69 -0.67c-0.75,-0.75 -1.33,-1.75 -1.82,-1.6 -0,0 -2.06,1.04 -2.06,1.39z"/>
  </g>
 </g>
</svg>
